<?xml version="1.0" encoding="utf-8" ?>
<svg baseProfile="full" height="3620" version="1.1" width="4625" xmlns="http://www.w3.org/2000/svg" xmlns:ev="http://www.w3.org/2001/xml-events" xmlns:xlink="http://www.w3.org/1999/xlink"><defs /><g font-size="96"><text style="font-family: monospace, sans-serif;" x="20" y="116">soundcard</text></g><g id="arrow-0" stroke="darkcyan" stroke-width="2"><line x1="2659.16414314" x2="2681.79156014" y1="1494.4808369" y2="1517.10825389" /><line x1="2681.79156014" x2="2704.41897714" y1="1517.10825389" y2="1494.4808369" /><line x1="2704.41897714" x2="2659.16414314" y1="1494.4808369" y2="1494.4808369" /></g><g font-size="32" id="feed-0"><rect fill="none" height="392" stroke="cadetblue" stroke-width="3" width="48" x="2659.16414314" y="1494.4808369" /><text rotate="90" style="font-family: monospace, sans-serif;" x="2675.16414314 2675.16414314 2675.16414314 2675.16414314 2675.16414314 2675.16414314 2675.16414314 2675.16414314 2675.16414314 2675.16414314 2675.16414314 2675.16414314 2675.16414314 2675.16414314 2675.16414314 2675.16414314" y="1542.4808369 1562.4808369 1582.4808369 1602.4808369 1622.4808369 1642.4808369 1662.4808369 1682.4808369 1702.4808369 1722.4808369 1742.4808369 1762.4808369 1782.4808369 1802.4808369 1822.4808369 1842.4808369">C 0805 10n film</text><g id="arrow-0" stroke="darkcyan" stroke-width="2"><line x1="2659.16414314" x2="2681.79156014" y1="1494.4808369" y2="1517.10825389" /><line x1="2681.79156014" x2="2704.41897714" y1="1517.10825389" y2="1494.4808369" /><line x1="2704.41897714" x2="2659.16414314" y1="1494.4808369" y2="1494.4808369" /></g></g><g id="arrow-1" stroke="darkcyan" stroke-width="2"><line x1="2716.18" x2="2738.807417" y1="1489.445" y2="1512.072417" /><line x1="2738.807417" x2="2761.434834" y1="1512.072417" y2="1489.445" /><line x1="2761.434834" x2="2716.18" y1="1489.445" y2="1489.445" /></g><g font-size="32" id="feed-1"><rect fill="none" height="312" stroke="cadetblue" stroke-width="3" width="48" x="2716.18" y="1489.445" /><text rotate="90" style="font-family: monospace, sans-serif;" x="2732.18 2732.18 2732.18 2732.18 2732.18 2732.18 2732.18 2732.18 2732.18 2732.18 2732.18 2732.18" y="1537.445 1557.445 1577.445 1597.445 1617.445 1637.445 1657.445 1677.445 1697.445 1717.445 1737.445 1757.445">C 0805 100n</text><g id="arrow-1" stroke="darkcyan" stroke-width="2"><line x1="2716.18" x2="2738.807417" y1="1489.445" y2="1512.072417" /><line x1="2738.807417" x2="2761.434834" y1="1512.072417" y2="1489.445" /><line x1="2761.434834" x2="2716.18" y1="1489.445" y2="1489.445" /></g></g><g id="arrow-2" stroke="darkcyan" stroke-width="2"><line x1="2771.3708976" x2="2793.9983146" y1="1494.8015288" y2="1517.4289458" /><line x1="2793.9983146" x2="2816.6257316" y1="1517.4289458" y2="1494.8015288" /><line x1="2816.6257316" x2="2771.3708976" y1="1494.8015288" y2="1494.8015288" /></g><g font-size="32" id="feed-2"><rect fill="none" height="272" stroke="cadetblue" stroke-width="3" width="48" x="2771.3708976" y="1494.8015288" /><text rotate="90" style="font-family: monospace, sans-serif;" x="2787.3708976 2787.3708976 2787.3708976 2787.3708976 2787.3708976 2787.3708976 2787.3708976 2787.3708976 2787.3708976 2787.3708976" y="1542.8015288 1562.8015288 1582.8015288 1602.8015288 1622.8015288 1642.8015288 1662.8015288 1682.8015288 1702.8015288 1722.8015288">C 0805 1u</text><g id="arrow-2" stroke="darkcyan" stroke-width="2"><line x1="2771.3708976" x2="2793.9983146" y1="1494.8015288" y2="1517.4289458" /><line x1="2793.9983146" x2="2816.6257316" y1="1517.4289458" y2="1494.8015288" /><line x1="2816.6257316" x2="2771.3708976" y1="1494.8015288" y2="1494.8015288" /></g></g><g id="arrow-3" stroke="darkcyan" stroke-width="2"><line x1="2825.58868784" x2="2848.21610484" y1="1496.0" y2="1518.627417" /><line x1="2848.21610484" x2="2870.84352184" y1="1518.627417" y2="1496.0" /><line x1="2870.84352184" x2="2825.58868784" y1="1496.0" y2="1496.0" /></g><g font-size="32" id="feed-3"><rect fill="none" height="292" stroke="cadetblue" stroke-width="3" width="48" x="2825.58868784" y="1496.0" /><text rotate="90" style="font-family: monospace, sans-serif;" x="2841.58868784 2841.58868784 2841.58868784 2841.58868784 2841.58868784 2841.58868784 2841.58868784 2841.58868784 2841.58868784 2841.58868784 2841.58868784" y="1544.0 1564.0 1584.0 1604.0 1624.0 1644.0 1664.0 1684.0 1704.0 1724.0 1744.0">C 0805 10u</text><g id="arrow-3" stroke="darkcyan" stroke-width="2"><line x1="2825.58868784" x2="2848.21610484" y1="1496.0" y2="1518.627417" /><line x1="2848.21610484" x2="2870.84352184" y1="1518.627417" y2="1496.0" /><line x1="2870.84352184" x2="2825.58868784" y1="1496.0" y2="1496.0" /></g></g><g id="arrow-4" stroke="darkcyan" stroke-width="2"><line x1="2993.68761115" x2="3016.31502815" y1="1496.0" y2="1518.627417" /><line x1="3016.31502815" x2="3038.94244515" y1="1518.627417" y2="1496.0" /><line x1="3038.94244515" x2="2993.68761115" y1="1496.0" y2="1496.0" /></g><g font-size="32" id="feed-4"><rect fill="none" height="292" stroke="cadetblue" stroke-width="3" width="48" x="2993.68761115" y="1496.0" /><text rotate="90" style="font-family: monospace, sans-serif;" x="3009.68761115 3009.68761115 3009.68761115 3009.68761115 3009.68761115 3009.68761115 3009.68761115 3009.68761115 3009.68761115 3009.68761115 3009.68761115" y="1544.0 1564.0 1584.0 1604.0 1624.0 1644.0 1664.0 1684.0 1704.0 1724.0 1744.0">C 0805 2n2</text><g id="arrow-4" stroke="darkcyan" stroke-width="2"><line x1="2993.68761115" x2="3016.31502815" y1="1496.0" y2="1518.627417" /><line x1="3016.31502815" x2="3038.94244515" y1="1518.627417" y2="1496.0" /><line x1="3038.94244515" x2="2993.68761115" y1="1496.0" y2="1496.0" /></g></g><g id="arrow-5" stroke="darkcyan" stroke-width="2"><line x1="1759.58471621" x2="1782.21213321" y1="1492.10196397" y2="1514.72938097" /><line x1="1782.21213321" x2="1804.83955021" y1="1514.72938097" y2="1492.10196397" /><line x1="1804.83955021" x2="1759.58471621" y1="1492.10196397" y2="1492.10196397" /></g><g font-size="32" id="feed-5"><rect fill="none" height="372" stroke="cadetblue" stroke-width="3" width="48" x="1759.58471621" y="1492.10196397" /><text rotate="90" style="font-family: monospace, sans-serif;" x="1775.58471621 1775.58471621 1775.58471621 1775.58471621 1775.58471621 1775.58471621 1775.58471621 1775.58471621 1775.58471621 1775.58471621 1775.58471621 1775.58471621 1775.58471621 1775.58471621 1775.58471621" y="1540.10196397 1560.10196397 1580.10196397 1600.10196397 1620.10196397 1640.10196397 1660.10196397 1680.10196397 1700.10196397 1720.10196397 1740.10196397 1760.10196397 1780.10196397 1800.10196397 1820.10196397">LED 0805 LED R</text><g id="arrow-5" stroke="darkcyan" stroke-width="2"><line x1="1759.58471621" x2="1782.21213321" y1="1492.10196397" y2="1514.72938097" /><line x1="1782.21213321" x2="1804.83955021" y1="1514.72938097" y2="1492.10196397" /><line x1="1804.83955021" x2="1759.58471621" y1="1492.10196397" y2="1492.10196397" /></g></g><g id="arrow-6" stroke="darkcyan" stroke-width="2"><line x1="1984.54843633" x2="2007.17585333" y1="1492.10196397" y2="1514.72938097" /><line x1="2007.17585333" x2="2029.80327033" y1="1514.72938097" y2="1492.10196397" /><line x1="2029.80327033" x2="1984.54843633" y1="1492.10196397" y2="1492.10196397" /></g><g font-size="32" id="feed-6"><rect fill="none" height="312" stroke="cadetblue" stroke-width="3" width="48" x="1984.54843633" y="1492.10196397" /><text rotate="90" style="font-family: monospace, sans-serif;" x="2000.54843633 2000.54843633 2000.54843633 2000.54843633 2000.54843633 2000.54843633 2000.54843633 2000.54843633 2000.54843633 2000.54843633 2000.54843633 2000.54843633" y="1540.10196397 1560.10196397 1580.10196397 1600.10196397 1620.10196397 1640.10196397 1660.10196397 1680.10196397 1700.10196397 1720.10196397 1740.10196397 1760.10196397">R 0805 100K</text><g id="arrow-6" stroke="darkcyan" stroke-width="2"><line x1="1984.54843633" x2="2007.17585333" y1="1492.10196397" y2="1514.72938097" /><line x1="2007.17585333" x2="2029.80327033" y1="1514.72938097" y2="1492.10196397" /><line x1="2029.80327033" x2="1984.54843633" y1="1492.10196397" y2="1492.10196397" /></g></g><g id="arrow-7" stroke="darkcyan" stroke-width="2"><line x1="2040.425" x2="2063.052417" y1="1492.10196397" y2="1514.72938097" /><line x1="2063.052417" x2="2085.679834" y1="1514.72938097" y2="1492.10196397" /><line x1="2085.679834" x2="2040.425" y1="1492.10196397" y2="1492.10196397" /></g><g font-size="32" id="feed-7"><rect fill="none" height="292" stroke="cadetblue" stroke-width="3" width="48" x="2040.425" y="1492.10196397" /><text rotate="90" style="font-family: monospace, sans-serif;" x="2056.425 2056.425 2056.425 2056.425 2056.425 2056.425 2056.425 2056.425 2056.425 2056.425 2056.425" y="1540.10196397 1560.10196397 1580.10196397 1600.10196397 1620.10196397 1640.10196397 1660.10196397 1680.10196397 1700.10196397 1720.10196397 1740.10196397">R 0805 10k</text><g id="arrow-7" stroke="darkcyan" stroke-width="2"><line x1="2040.425" x2="2063.052417" y1="1492.10196397" y2="1514.72938097" /><line x1="2063.052417" x2="2085.679834" y1="1514.72938097" y2="1492.10196397" /><line x1="2085.679834" x2="2040.425" y1="1492.10196397" y2="1492.10196397" /></g></g><g id="arrow-8" stroke="darkcyan" stroke-width="2"><line x1="2095.47615112" x2="2118.10356812" y1="1492.10196397" y2="1514.72938097" /><line x1="2118.10356812" x2="2140.73098512" y1="1514.72938097" y2="1492.10196397" /><line x1="2140.73098512" x2="2095.47615112" y1="1492.10196397" y2="1492.10196397" /></g><g font-size="32" id="feed-8"><rect fill="none" height="312" stroke="cadetblue" stroke-width="3" width="48" x="2095.47615112" y="1492.10196397" /><text rotate="90" style="font-family: monospace, sans-serif;" x="2111.47615112 2111.47615112 2111.47615112 2111.47615112 2111.47615112 2111.47615112 2111.47615112 2111.47615112 2111.47615112 2111.47615112 2111.47615112 2111.47615112" y="1540.10196397 1560.10196397 1580.10196397 1600.10196397 1620.10196397 1640.10196397 1660.10196397 1680.10196397 1700.10196397 1720.10196397 1740.10196397 1760.10196397">R 0805 470R</text><g id="arrow-8" stroke="darkcyan" stroke-width="2"><line x1="2095.47615112" x2="2118.10356812" y1="1492.10196397" y2="1514.72938097" /><line x1="2118.10356812" x2="2140.73098512" y1="1514.72938097" y2="1492.10196397" /><line x1="2140.73098512" x2="2095.47615112" y1="1492.10196397" y2="1492.10196397" /></g></g><g id="arrow-9" stroke="darkcyan" stroke-width="2"><line x1="2148.67491674" x2="2171.30233374" y1="1492.10196397" y2="1514.72938097" /><line x1="2171.30233374" x2="2193.92975074" y1="1514.72938097" y2="1492.10196397" /><line x1="2193.92975074" x2="2148.67491674" y1="1492.10196397" y2="1492.10196397" /></g><g font-size="32" id="feed-9"><rect fill="none" height="312" stroke="cadetblue" stroke-width="3" width="48" x="2148.67491674" y="1492.10196397" /><text rotate="90" style="font-family: monospace, sans-serif;" x="2164.67491674 2164.67491674 2164.67491674 2164.67491674 2164.67491674 2164.67491674 2164.67491674 2164.67491674 2164.67491674 2164.67491674 2164.67491674 2164.67491674" y="1540.10196397 1560.10196397 1580.10196397 1600.10196397 1620.10196397 1640.10196397 1660.10196397 1680.10196397 1700.10196397 1720.10196397 1740.10196397 1760.10196397">R 0805 100R</text><g id="arrow-9" stroke="darkcyan" stroke-width="2"><line x1="2148.67491674" x2="2171.30233374" y1="1492.10196397" y2="1514.72938097" /><line x1="2171.30233374" x2="2193.92975074" y1="1514.72938097" y2="1492.10196397" /><line x1="2193.92975074" x2="2148.67491674" y1="1492.10196397" y2="1492.10196397" /></g></g><g id="arrow-10" stroke="darkcyan" stroke-width="2"><line x1="2867.56588072" x2="2890.19329772" y1="1360.0" y2="1337.372583" /><line x1="2890.19329772" x2="2912.82071472" y1="1337.372583" y2="1360.0" /><line x1="2912.82071472" x2="2867.56588072" y1="1360.0" y2="1360.0" /></g><g font-size="32" id="feed-10"><rect fill="none" height="1312" stroke="cadetblue" stroke-width="3" width="48" x="2865.56588072" y="48.0" /><text rotate="90" style="font-family: monospace, sans-serif;" x="2883.56588072 2883.56588072 2883.56588072 2883.56588072 2883.56588072 2883.56588072 2883.56588072 2883.56588072 2883.56588072 2883.56588072 2883.56588072 2883.56588072 2883.56588072 2883.56588072 2883.56588072 2883.56588072 2883.56588072 2883.56588072 2883.56588072 2883.56588072 2883.56588072 2883.56588072 2883.56588072 2883.56588072 2883.56588072 2883.56588072 2883.56588072 2883.56588072 2883.56588072 2883.56588072 2883.56588072 2883.56588072 2883.56588072 2883.56588072 2883.56588072 2883.56588072 2883.56588072 2883.56588072 2883.56588072 2883.56588072 2883.56588072 2883.56588072 2883.56588072 2883.56588072 2883.56588072 2883.56588072 2883.56588072 2883.56588072 2883.56588072 2883.56588072 2883.56588072 2883.56588072 2883.56588072 2883.56588072 2883.56588072 2883.56588072 2883.56588072 2883.56588072 2883.56588072 2883.56588072 2883.56588072 2883.56588072" y="1280.0 1260.0 1240.0 1220.0 1200.0 1180.0 1160.0 1140.0 1120.0 1100.0 1080.0 1060.0 1040.0 1020.0 1000.0 980.0 960.0 940.0 920.0 900.0 880.0 860.0 840.0 820.0 800.0 780.0 760.0 740.0 720.0 700.0 680.0 660.0 640.0 620.0 600.0 580.0 560.0 540.0 520.0 500.0 480.0 460.0 440.0 420.0 400.0 380.0 360.0 340.0 320.0 300.0 280.0 260.0 240.0 220.0 200.0 180.0 160.0 140.0 120.0 100.0 80.0 60.0">RBHR2425MCP-saiVlamrehT mm1.3x1.3PE mm5.0P mm5x5 PE1-23-NFQVH</text><g id="arrow-10" stroke="darkcyan" stroke-width="2"><line x1="2867.56588072" x2="2890.19329772" y1="1360.0" y2="1337.372583" /><line x1="2890.19329772" x2="2912.82071472" y1="1337.372583" y2="1360.0" /><line x1="2912.82071472" x2="2867.56588072" y1="1360.0" y2="1360.0" /></g></g><g id="arrow-11" stroke="darkcyan" stroke-width="2"><line x1="1670.6244204" x2="1693.2518374" y1="1368.43055613" y2="1345.80313913" /><line x1="1693.2518374" x2="1715.8792544" y1="1345.80313913" y2="1368.43055613" /><line x1="1715.8792544" x2="1670.6244204" y1="1368.43055613" y2="1368.43055613" /></g><g font-size="32" id="feed-11"><rect fill="none" height="1112" stroke="cadetblue" stroke-width="3" width="48" x="1668.6244204" y="256.430556129" /><text rotate="90" style="font-family: monospace, sans-serif;" x="1686.6244204 1686.6244204 1686.6244204 1686.6244204 1686.6244204 1686.6244204 1686.6244204 1686.6244204 1686.6244204 1686.6244204 1686.6244204 1686.6244204 1686.6244204 1686.6244204 1686.6244204 1686.6244204 1686.6244204 1686.6244204 1686.6244204 1686.6244204 1686.6244204 1686.6244204 1686.6244204 1686.6244204 1686.6244204 1686.6244204 1686.6244204 1686.6244204 1686.6244204 1686.6244204 1686.6244204 1686.6244204 1686.6244204 1686.6244204 1686.6244204 1686.6244204 1686.6244204 1686.6244204 1686.6244204 1686.6244204 1686.6244204 1686.6244204 1686.6244204 1686.6244204 1686.6244204 1686.6244204 1686.6244204 1686.6244204 1686.6244204 1686.6244204 1686.6244204 1686.6244204" y="1288.43055613 1268.43055613 1248.43055613 1228.43055613 1208.43055613 1188.43055613 1168.43055613 1148.43055613 1128.43055613 1108.43055613 1088.43055613 1068.43055613 1048.43055613 1028.43055613 1008.43055613 988.430556129 968.430556129 948.430556129 928.430556129 908.430556129 888.430556129 868.430556129 848.430556129 828.430556129 808.430556129 788.430556129 768.430556129 748.430556129 728.430556129 708.430556129 688.430556129 668.430556129 648.430556129 628.430556129 608.430556129 588.430556129 568.430556129 548.430556129 528.430556129 508.430556129 488.430556129 468.430556129 448.430556129 428.430556129 408.430556129 388.430556129 368.430556129 348.430556129 328.430556129 308.430556129 288.430556129 268.430556129">M675.42-mm0.2x5.2 niP4-BMDSA nocarbA DMS rotallicsO</text><g id="arrow-11" stroke="darkcyan" stroke-width="2"><line x1="1670.6244204" x2="1693.2518374" y1="1368.43055613" y2="1345.80313913" /><line x1="1693.2518374" x2="1715.8792544" y1="1345.80313913" y2="1368.43055613" /><line x1="1715.8792544" x2="1670.6244204" y1="1368.43055613" y2="1368.43055613" /></g></g><g id="arrow-12" stroke="darkcyan" stroke-width="2"><line x1="1703.00328133" x2="1725.63069833" y1="1492.10196397" y2="1514.72938097" /><line x1="1725.63069833" x2="1748.25811533" y1="1514.72938097" y2="1492.10196397" /><line x1="1748.25811533" x2="1703.00328133" y1="1492.10196397" y2="1492.10196397" /></g><g font-size="32" id="feed-12"><rect fill="none" height="292" stroke="cadetblue" stroke-width="3" width="48" x="1703.00328133" y="1492.10196397" /><text rotate="90" style="font-family: monospace, sans-serif;" x="1719.00328133 1719.00328133 1719.00328133 1719.00328133 1719.00328133 1719.00328133 1719.00328133 1719.00328133 1719.00328133 1719.00328133 1719.00328133" y="1540.10196397 1560.10196397 1580.10196397 1600.10196397 1620.10196397 1640.10196397 1660.10196397 1680.10196397 1700.10196397 1720.10196397 1740.10196397">R 0805 3K9</text><g id="arrow-12" stroke="darkcyan" stroke-width="2"><line x1="1703.00328133" x2="1725.63069833" y1="1492.10196397" y2="1514.72938097" /><line x1="1725.63069833" x2="1748.25811533" y1="1514.72938097" y2="1492.10196397" /><line x1="1748.25811533" x2="1703.00328133" y1="1492.10196397" y2="1492.10196397" /></g></g><g id="arrow-13" stroke="darkcyan" stroke-width="2"><line x1="1614.98630721" x2="1637.61372421" y1="1368.43055613" y2="1345.80313913" /><line x1="1637.61372421" x2="1660.24114121" y1="1345.80313913" y2="1368.43055613" /><line x1="1660.24114121" x2="1614.98630721" y1="1368.43055613" y2="1368.43055613" /></g><g font-size="32" id="feed-13"><rect fill="none" height="1132" stroke="cadetblue" stroke-width="3" width="48" x="1612.98630721" y="236.430556129" /><text rotate="90" style="font-family: monospace, sans-serif;" x="1630.98630721 1630.98630721 1630.98630721 1630.98630721 1630.98630721 1630.98630721 1630.98630721 1630.98630721 1630.98630721 1630.98630721 1630.98630721 1630.98630721 1630.98630721 1630.98630721 1630.98630721 1630.98630721 1630.98630721 1630.98630721 1630.98630721 1630.98630721 1630.98630721 1630.98630721 1630.98630721 1630.98630721 1630.98630721 1630.98630721 1630.98630721 1630.98630721 1630.98630721 1630.98630721 1630.98630721 1630.98630721 1630.98630721 1630.98630721 1630.98630721 1630.98630721 1630.98630721 1630.98630721 1630.98630721 1630.98630721 1630.98630721 1630.98630721 1630.98630721 1630.98630721 1630.98630721 1630.98630721 1630.98630721 1630.98630721 1630.98630721 1630.98630721 1630.98630721 1630.98630721 1630.98630721" y="1288.43055613 1268.43055613 1248.43055613 1228.43055613 1208.43055613 1188.43055613 1168.43055613 1148.43055613 1128.43055613 1108.43055613 1088.43055613 1068.43055613 1048.43055613 1028.43055613 1008.43055613 988.430556129 968.430556129 948.430556129 928.430556129 908.430556129 888.430556129 868.430556129 848.430556129 828.430556129 808.430556129 788.430556129 768.430556129 748.430556129 728.430556129 708.430556129 688.430556129 668.430556129 648.430556129 628.430556129 608.430556129 588.430556129 568.430556129 548.430556129 528.430556129 508.430556129 488.430556129 468.430556129 448.430556129 428.430556129 408.430556129 388.430556129 368.430556129 348.430556129 328.430556129 308.430556129 288.430556129 268.430556129 248.430556129">M2975.22-mm0.2x5.2 niP4-BMDSA nocarbA DMS rotallicsO</text><g id="arrow-13" stroke="darkcyan" stroke-width="2"><line x1="1614.98630721" x2="1637.61372421" y1="1368.43055613" y2="1345.80313913" /><line x1="1637.61372421" x2="1660.24114121" y1="1345.80313913" y2="1368.43055613" /><line x1="1660.24114121" x2="1614.98630721" y1="1368.43055613" y2="1368.43055613" /></g></g><g id="arrow-14" stroke="darkcyan" stroke-width="2"><line x1="1559.68289299" x2="1582.31030998" y1="1368.43055613" y2="1345.80313913" /><line x1="1582.31030998" x2="1604.93772698" y1="1345.80313913" y2="1368.43055613" /><line x1="1604.93772698" x2="1559.68289299" y1="1368.43055613" y2="1368.43055613" /></g><g font-size="32" id="feed-14"><rect fill="none" height="532" stroke="cadetblue" stroke-width="3" width="48" x="1557.68289299" y="836.430556129" /><text rotate="90" style="font-family: monospace, sans-serif;" x="1575.68289299 1575.68289299 1575.68289299 1575.68289299 1575.68289299 1575.68289299 1575.68289299 1575.68289299 1575.68289299 1575.68289299 1575.68289299 1575.68289299 1575.68289299 1575.68289299 1575.68289299 1575.68289299 1575.68289299 1575.68289299 1575.68289299 1575.68289299 1575.68289299 1575.68289299 1575.68289299" y="1288.43055613 1268.43055613 1248.43055613 1228.43055613 1208.43055613 1188.43055613 1168.43055613 1148.43055613 1128.43055613 1108.43055613 1088.43055613 1068.43055613 1048.43055613 1028.43055613 1008.43055613 988.430556129 968.430556129 948.430556129 928.430556129 908.430556129 888.430556129 868.430556129 848.430556129">MUTS-10SC42TA-5-32-TOS</text><g id="arrow-14" stroke="darkcyan" stroke-width="2"><line x1="1559.68289299" x2="1582.31030998" y1="1368.43055613" y2="1345.80313913" /><line x1="1582.31030998" x2="1604.93772698" y1="1345.80313913" y2="1368.43055613" /><line x1="1604.93772698" x2="1559.68289299" y1="1368.43055613" y2="1368.43055613" /></g></g><g id="arrow-15" stroke="darkcyan" stroke-width="2"><line x1="1503.36639377" x2="1525.99381077" y1="1368.43055613" y2="1345.80313913" /><line x1="1525.99381077" x2="1548.62122777" y1="1345.80313913" y2="1368.43055613" /><line x1="1548.62122777" x2="1503.36639377" y1="1368.43055613" y2="1368.43055613" /></g><g font-size="32" id="feed-15"><rect fill="none" height="392" stroke="cadetblue" stroke-width="3" width="48" x="1501.36639377" y="976.430556129" /><text rotate="90" style="font-family: monospace, sans-serif;" x="1519.36639377 1519.36639377 1519.36639377 1519.36639377 1519.36639377 1519.36639377 1519.36639377 1519.36639377 1519.36639377 1519.36639377 1519.36639377 1519.36639377 1519.36639377 1519.36639377 1519.36639377 1519.36639377" y="1288.43055613 1268.43055613 1248.43055613 1228.43055613 1208.43055613 1188.43055613 1168.43055613 1148.43055613 1128.43055613 1108.43055613 1088.43055613 1068.43055613 1048.43055613 1028.43055613 1008.43055613 988.430556129">361PCN-5-32-TOS</text><g id="arrow-15" stroke="darkcyan" stroke-width="2"><line x1="1503.36639377" x2="1525.99381077" y1="1368.43055613" y2="1345.80313913" /><line x1="1525.99381077" x2="1548.62122777" y1="1345.80313913" y2="1368.43055613" /><line x1="1548.62122777" x2="1503.36639377" y1="1368.43055613" y2="1368.43055613" /></g></g><g id="arrow-16" stroke="darkcyan" stroke-width="2"><line x1="3061.986" x2="3084.613417" y1="2115.5" y2="2092.872583" /><line x1="3084.613417" x2="3061.986" y1="2092.872583" y2="2070.245166" /><line x1="3061.986" x2="3061.986" y1="2070.245166" y2="2115.5" /></g><g font-size="32" id="feed-16"><rect fill="none" height="48" stroke="cadetblue" stroke-width="3" width="812" x="3061.986" y="2067.5" /><text rotate="0" style="font-family: monospace, sans-serif;" x="3141.986 3161.986 3181.986 3201.986 3221.986 3241.986 3261.986 3281.986 3301.986 3321.986 3341.986 3361.986 3381.986 3401.986 3421.986 3441.986 3461.986 3481.986 3501.986 3521.986 3541.986 3561.986 3581.986 3601.986 3621.986 3641.986 3661.986 3681.986 3701.986 3721.986 3741.986 3761.986 3781.986 3801.986 3821.986 3841.986 3861.986" y="2099.5 2099.5 2099.5 2099.5 2099.5 2099.5 2099.5 2099.5 2099.5 2099.5 2099.5 2099.5 2099.5 2099.5 2099.5 2099.5 2099.5 2099.5 2099.5 2099.5 2099.5 2099.5 2099.5 2099.5 2099.5 2099.5 2099.5 2099.5 2099.5 2099.5 2099.5 2099.5 2099.5 2099.5 2099.5 2099.5 2099.5">TSSOP-30 4.4x7.8mm P0.5mm-PCM1863DBT</text><g id="arrow-16" stroke="darkcyan" stroke-width="2"><line x1="3061.986" x2="3084.613417" y1="2115.5" y2="2092.872583" /><line x1="3084.613417" x2="3061.986" y1="2092.872583" y2="2070.245166" /><line x1="3061.986" x2="3061.986" y1="2070.245166" y2="2115.5" /></g></g></svg>